<svg xmlns="http://www.w3.org/2000/svg" width="239.704" height="239.704" viewBox="0 0 239.704 239.704">
  <path id="Path_1" data-name="Path 1" d="M119.936,0A119.852,119.852,0,1,0,239.788,119.852,119.857,119.857,0,0,0,119.936,0Zm55.521,86.7-57.409,87.746c-.015.015-.045.03-.045.045a10.923,10.923,0,0,1-.839,1.378,10.762,10.762,0,0,1-1.8,1.3c-.15.1-.3.225-.464.33a9.706,9.706,0,0,1-2.936,1.228c-.345.09-.659.18-1.019.24a10.113,10.113,0,0,1-2.517.03,9.919,9.919,0,0,1-1.753-.27,10.6,10.6,0,0,1-1.723-.689,11.961,11.961,0,0,1-1.438-.569,6.624,6.624,0,0,1-.794-.794c-.12-.1-.27-.135-.39-.24L68.909,145.53a10.486,10.486,0,1,1,14.234-15.4l24.194,22.384L157.9,75.222A10.488,10.488,0,0,1,175.457,86.7Z" transform="translate(-0.084)"/>
</svg>
