<svg xmlns="http://www.w3.org/2000/svg" width="288.141" height="320.157" viewBox="0 0 288.141 320.157">
  <path id="Path_3" data-name="Path 3" d="M115.055,258.126a16.008,16.008,0,0,0,16.008-16.008V146.071a16.008,16.008,0,0,0-32.016,0v96.047A16.008,16.008,0,0,0,115.055,258.126ZM275.134,66.031H211.1V50.024A48.024,48.024,0,0,0,163.079,2H131.063A48.024,48.024,0,0,0,83.039,50.024V66.031H19.008a16.008,16.008,0,0,0,0,32.016H35.016V274.134a48.024,48.024,0,0,0,48.024,48.024H211.1a48.024,48.024,0,0,0,48.024-48.024V98.047h16.008a16.008,16.008,0,0,0,0-32.016ZM115.055,50.024a16.008,16.008,0,0,1,16.008-16.008h32.016a16.008,16.008,0,0,1,16.008,16.008V66.031H115.055ZM227.11,274.134A16.008,16.008,0,0,1,211.1,290.141H83.039a16.008,16.008,0,0,1-16.008-16.008V98.047H227.11Zm-48.024-16.008a16.008,16.008,0,0,0,16.008-16.008V146.071a16.008,16.008,0,1,0-32.016,0v96.047A16.008,16.008,0,0,0,179.086,258.126Z" transform="translate(-3 -2)"/>
</svg>
